<?xml version="1.0" encoding="UTF-8" standalone="no"?>
<!DOCTYPE svg PUBLIC "-//W3C//DTD SVG 20010904//EN"
              "http://www.w3.org/TR/2001/REC-SVG-20010904/DTD/svg10.dtd">

<svg xmlns="http://www.w3.org/2000/svg"
     width="5.55556in" height="5.55556in"
     viewBox="0 0 400 400">
  <path id="boy-hair"
        fill="none" stroke="black" stroke-width="1"
        d="M 216.00,138.00
           C 216.00,138.00 237.00,138.79 237.00,138.79
             237.00,138.79 249.00,138.79 249.00,138.79
             249.00,138.79 256.00,135.00 256.00,135.00
             261.21,143.02 264.16,133.59 266.00,129.00
             266.00,129.00 268.00,129.00 268.00,129.00
             268.00,129.00 272.65,138.01 272.65,138.01
             272.65,138.01 287.00,139.00 287.00,139.00
             285.61,126.71 276.67,127.38 281.00,119.00
             281.00,119.00 278.00,119.00 278.00,119.00
             278.00,119.00 280.00,115.00 280.00,115.00
             273.28,113.37 262.24,113.97 255.00,114.00
             238.45,114.08 221.10,120.53 216.00,138.00 Z" />
</svg>
