<?xml version="1.0" encoding="UTF-8" standalone="no"?>
<!DOCTYPE svg PUBLIC "-//W3C//DTD SVG 20010904//EN"
              "http://www.w3.org/TR/2001/REC-SVG-20010904/DTD/svg10.dtd">

<svg xmlns="http://www.w3.org/2000/svg"
     width="5.55556in" height="5.55556in"
     viewBox="0 0 400 400">
  <path id="boy-face"
        fill="none" stroke="black" stroke-width="1"
        d="M 266.00,137.00
           C 261.44,144.80 259.55,140.17 253.00,140.69
             249.05,141.01 249.81,141.96 242.00,142.00
             242.00,142.00 214.00,142.00 214.00,142.00
             212.76,151.41 212.54,157.11 216.99,166.00
             228.78,189.58 260.42,194.02 278.98,175.96
             285.46,169.66 288.94,161.95 289.83,153.00
             290.09,150.37 290.39,145.59 288.40,143.60
             286.28,141.47 280.88,142.02 278.00,142.00
             272.33,141.96 270.97,142.09 268.00,137.00
             268.00,137.00 266.00,137.00 266.00,137.00 Z
           M 240.00,157.00
           C 240.00,157.00 236.00,151.00 236.00,151.00
             236.00,151.00 230.00,158.00 230.00,158.00
             227.14,150.54 233.60,147.43 237.57,150.74
             239.61,152.44 239.72,154.59 240.00,157.00 Z
           M 274.00,158.00
           C 274.00,158.00 272.00,158.00 272.00,158.00
             270.49,148.88 267.12,154.48 263.00,157.00
             264.09,147.70 270.67,148.32 272.83,151.43
             274.07,153.23 273.95,155.91 274.00,158.00 Z
           M 260.00,165.00
           C 256.71,174.40 246.29,174.40 243.00,165.00
             248.19,163.53 254.81,163.53 260.00,165.00 Z" />
</svg>
