<?xml version="1.0" encoding="UTF-8" standalone="no"?>
<!DOCTYPE svg PUBLIC "-//W3C//DTD SVG 20010904//EN"
              "http://www.w3.org/TR/2001/REC-SVG-20010904/DTD/svg10.dtd">

<svg xmlns="http://www.w3.org/2000/svg"
     width="5.55556in" height="5.55556in"
     viewBox="0 0 400 400">
  <path id="girl-hair"
        fill="none" stroke="black" stroke-width="1"
        d="M 116.00,132.00
           C 115.47,127.04 113.98,122.94 108.98,120.85
             100.84,117.46 91.58,124.02 93.41,133.00
             94.68,139.25 99.88,142.38 106.00,141.80
             112.58,141.18 111.28,139.02 123.00,139.00
             127.55,138.99 146.89,139.57 149.78,138.26
             151.63,137.42 151.95,136.54 153.00,135.00
             154.44,135.91 157.27,137.95 158.90,138.10
             162.50,138.45 165.44,130.74 167.00,128.00
             168.05,130.44 170.42,136.56 172.49,137.98
             174.60,139.42 181.03,138.92 184.00,139.29
             191.24,140.18 199.50,144.65 205.72,138.61
             207.58,136.80 208.55,134.56 208.77,132.00
             209.57,122.94 199.98,116.90 192.09,121.31
             187.89,123.66 186.51,127.52 186.00,132.00
             180.85,126.85 176.50,122.07 170.00,118.66
             158.64,112.30 143.29,112.74 132.00,118.66
             122.79,123.73 122.67,126.80 116.00,132.00 Z" />
</svg>
