<?xml version="1.0" encoding="UTF-8" standalone="no"?>
<!DOCTYPE svg PUBLIC "-//W3C//DTD SVG 20010904//EN"
              "http://www.w3.org/TR/2001/REC-SVG-20010904/DTD/svg10.dtd">

<svg xmlns="http://www.w3.org/2000/svg"
     width="5.55556in" height="5.55556in"
     viewBox="0 0 400 400">
  <path id="girl-face"
        fill="none" stroke="black" stroke-width="1"
        d="M 166.00,136.00
           C 162.80,144.85 158.83,140.36 153.00,140.72
             150.07,140.90 149.53,141.92 143.00,142.00
             143.00,142.00 124.00,142.00 124.00,142.00
             121.23,142.00 116.71,141.68 114.60,143.74
             112.71,145.58 112.93,149.53 113.04,152.00
             113.41,160.59 117.45,169.47 123.44,175.74
             138.07,190.48 164.12,191.08 178.83,175.74
             188.65,165.78 190.77,155.39 189.00,142.00
             189.00,142.00 170.41,140.98 170.41,140.98
             170.41,140.98 166.00,136.00 166.00,136.00 Z
           M 139.00,156.00
           C 134.98,153.72 133.09,150.48 131.00,157.00
             131.00,157.00 129.00,157.00 129.00,157.00
             129.63,146.30 137.93,147.01 139.00,156.00 Z
           M 174.00,157.00
           C 174.00,157.00 170.00,151.00 170.00,151.00
             170.00,151.00 163.00,157.00 163.00,157.00
             164.14,147.23 173.35,146.03 174.00,157.00 Z
           M 160.00,165.00
           C 158.29,169.88 155.54,172.53 150.00,171.84
             147.53,171.53 142.39,168.81 144.17,165.60
             145.29,163.56 150.94,163.98 153.00,164.00
             156.06,164.05 157.05,164.16 160.00,165.00 Z" />
</svg>
