<?xml version="1.0" encoding="UTF-8" standalone="no"?>
<!DOCTYPE svg PUBLIC "-//W3C//DTD SVG 20010904//EN"
              "http://www.w3.org/TR/2001/REC-SVG-20010904/DTD/svg10.dtd">

<svg xmlns="http://www.w3.org/2000/svg"
     width="5.55556in" height="5.55556in"
     viewBox="0 0 400 400">
  <path id="left-snake"
        fill="#05cc0f" stroke="#05cc0f" stroke-width="1"
        d="M 191.00,276.00
           C 187.42,274.17 185.57,274.35 182.00,273.23
             179.00,272.28 173.69,270.09 174.57,266.07
             174.81,264.93 175.62,263.93 176.70,263.54
             178.12,262.89 180.19,263.70 182.01,263.54
             186.28,263.39 194.12,259.20 191.29,254.01
             187.20,246.49 178.33,247.63 172.01,251.27
             163.25,256.33 160.13,269.01 167.34,276.82
             170.09,279.79 173.82,282.29 178.00,281.16
             178.00,281.16 191.00,276.00 191.00,276.00 Z " />
   <path id="right-snake"
        fill="#05cc0f" stroke="#05cc0f" stroke-width="1"
        d="M 225.00,262.00
           C 226.78,267.23 226.52,269.65 221.00,272.20
             214.41,275.23 188.75,277.97 180.02,283.81
             173.13,288.42 172.06,297.85 178.22,303.61
             181.32,306.50 186.02,307.59 190.00,308.71
             200.43,311.63 201.46,310.60 212.00,316.00
             209.62,318.27 207.76,320.05 205.00,321.90
             198.76,326.07 185.70,332.51 195.23,341.47
             196.45,342.63 198.50,343.88 200.00,344.67
             202.66,346.08 204.10,346.46 207.00,347.00
             203.54,340.81 195.46,339.38 197.25,334.01
             199.65,326.78 220.54,322.98 215.39,312.10
             212.70,306.41 196.09,303.05 190.00,300.55
             187.32,299.45 181.24,296.87 182.34,293.09
             183.52,289.01 193.28,287.20 197.00,286.45
             203.77,285.09 224.41,282.66 229.00,280.32
             231.92,278.82 233.98,276.86 235.59,273.99
             241.33,263.69 235.23,253.55 225.00,249.62
             219.54,247.52 210.50,247.61 208.96,255.01
             208.04,259.47 214.14,263.41 218.00,263.60
             220.17,263.70 222.93,262.67 225.00,262.00 Z" />
             <path id="staff"
        fill="#764abc" stroke="#764abc" stroke-width="1"
        d="M 196.00,274.00
           C 198.57,273.97 201.89,274.42 203.26,271.71
             204.30,269.65 203.92,262.04 204.28,259.00
             204.28,259.00 205.00,241.00 205.00,241.00
             205.00,241.00 206.00,221.00 206.00,221.00
             206.01,218.42 205.80,215.52 206.98,213.17
             208.60,209.95 214.38,206.28 213.77,199.00
             213.24,192.54 208.45,187.66 202.00,187.11
             192.62,186.30 185.28,193.56 187.39,203.00
             188.42,207.58 191.33,209.69 193.03,213.00
             194.71,216.26 194.95,220.40 195.00,224.00
             195.00,224.00 195.00,244.00 195.00,244.00
             195.00,244.00 196.00,260.00 196.00,260.00
             196.00,260.00 196.00,274.00 196.00,274.00 Z
           M 202.00,303.00
           C 202.00,303.00 204.00,289.00 204.00,289.00
             202.31,289.06 200.00,288.91 198.39,290.02
             196.35,291.80 196.67,298.35 198.39,300.52
             199.20,301.99 200.48,302.32 202.00,303.00 Z
           M 198.07,322.00
           C 199.29,321.50 200.21,321.40 201.26,320.28
             204.98,316.30 199.24,311.56 198.07,318.06
             198.07,318.06 198.07,322.00 198.07,322.00 Z
           M 202.00,338.00
           C 202.00,338.00 202.00,332.00 202.00,332.00
             198.14,334.25 198.14,335.75 202.00,338.00 Z
           M 200.00,348.00
           C 198.72,352.52 198.72,354.48 200.00,359.00
             202.70,355.33 202.70,351.67 200.00,348.00 Z" />
  <path id="wings"
        fill="#096a09" stroke="#096a09" stroke-width="1"
        d="M 102.00,215.00
           C 107.61,222.11 113.49,222.90 122.00,222.30
             124.97,222.09 138.13,225.61 141.00,226.99
             144.40,228.64 145.96,230.18 150.00,231.61
             156.16,233.80 157.75,232.05 161.00,232.67
             163.70,233.19 167.30,235.87 170.00,237.34
             174.83,239.52 186.23,242.12 190.40,237.34
             192.36,235.32 192.10,230.77 191.91,228.00
             191.77,225.86 190.98,217.97 189.98,216.49
             189.98,216.49 175.00,204.99 175.00,204.99
             170.40,200.52 165.15,194.14 158.00,195.54
             154.10,196.30 146.05,200.30 142.00,201.99
             131.38,206.40 113.08,213.44 102.00,215.00 Z
           M 298.00,216.00
           C 298.00,216.00 266.00,204.80 266.00,204.80
             260.94,202.79 246.12,195.89 242.00,195.35
             234.80,194.39 228.20,203.13 223.00,207.38
             215.00,213.94 209.14,213.37 209.00,225.00
             208.98,227.28 208.73,234.87 209.57,236.57
             210.76,238.98 214.59,239.59 217.00,239.82
             226.66,240.77 234.01,234.60 238.00,233.09
             242.47,231.39 243.91,233.44 250.00,231.53
             254.76,230.04 257.60,227.47 261.00,226.07
             263.81,224.92 265.36,225.14 268.00,224.45
             268.00,224.45 273.00,222.67 273.00,222.67
             279.39,220.63 289.36,225.62 298.00,216.00 Z" />
     <path id="boy-face"
        fill="#039be5" stroke="#039be5" stroke-width="1"
        d="M 266.00,137.00
           C 261.44,144.80 259.55,140.17 253.00,140.69
             249.05,141.01 249.81,141.96 242.00,142.00
             242.00,142.00 214.00,142.00 214.00,142.00
             212.76,151.41 212.54,157.11 216.99,166.00
             228.78,189.58 260.42,194.02 278.98,175.96
             285.46,169.66 288.94,161.95 289.83,153.00
             290.09,150.37 290.39,145.59 288.40,143.60
             286.28,141.47 280.88,142.02 278.00,142.00
             272.33,141.96 270.97,142.09 268.00,137.00
             268.00,137.00 266.00,137.00 266.00,137.00 Z
           M 240.00,157.00
           C 240.00,157.00 236.00,151.00 236.00,151.00
             236.00,151.00 230.00,158.00 230.00,158.00
             227.14,150.54 233.60,147.43 237.57,150.74
             239.61,152.44 239.72,154.59 240.00,157.00 Z
           M 274.00,158.00
           C 274.00,158.00 272.00,158.00 272.00,158.00
             270.49,148.88 267.12,154.48 263.00,157.00
             264.09,147.70 270.67,148.32 272.83,151.43
             274.07,153.23 273.95,155.91 274.00,158.00 Z
           M 260.00,165.00
           C 256.71,174.40 246.29,174.40 243.00,165.00
             248.19,163.53 254.81,163.53 260.00,165.00 Z " />
     <path id="girl-face"
        fill="#ff8a65" stroke="#ff8a65" stroke-width="1"
        d="M 166.00,136.00
           C 162.80,144.85 158.83,140.36 153.00,140.72
             150.07,140.90 149.53,141.92 143.00,142.00
             143.00,142.00 124.00,142.00 124.00,142.00
             121.23,142.00 116.71,141.68 114.60,143.74
             112.71,145.58 112.93,149.53 113.04,152.00
             113.41,160.59 117.45,169.47 123.44,175.74
             138.07,190.48 164.12,191.08 178.83,175.74
             188.65,165.78 190.77,155.39 189.00,142.00
             189.00,142.00 170.41,140.98 170.41,140.98
             170.41,140.98 166.00,136.00 166.00,136.00 Z
           M 139.00,156.00
           C 134.98,153.72 133.09,150.48 131.00,157.00
             131.00,157.00 129.00,157.00 129.00,157.00
             129.63,146.30 137.93,147.01 139.00,156.00 Z
           M 174.00,157.00
           C 174.00,157.00 170.00,151.00 170.00,151.00
             170.00,151.00 163.00,157.00 163.00,157.00
             164.14,147.23 173.35,146.03 174.00,157.00 Z
           M 160.00,165.00
           C 158.29,169.88 155.54,172.53 150.00,171.84
             147.53,171.53 142.39,168.81 144.17,165.60
             145.29,163.56 150.94,163.98 153.00,164.00
             156.06,164.05 157.05,164.16 160.00,165.00 Z" />
    <path id="boy-hair"
        fill="#ff8a65" stroke="#ff8a65" stroke-width="1"
        d="M 216.00,138.00
           C 216.00,138.00 237.00,138.79 237.00,138.79
             237.00,138.79 249.00,138.79 249.00,138.79
             249.00,138.79 256.00,135.00 256.00,135.00
             261.21,143.02 264.16,133.59 266.00,129.00
             266.00,129.00 268.00,129.00 268.00,129.00
             268.00,129.00 272.65,138.01 272.65,138.01
             272.65,138.01 287.00,139.00 287.00,139.00
             285.61,126.71 276.67,127.38 281.00,119.00
             281.00,119.00 278.00,119.00 278.00,119.00
             278.00,119.00 280.00,115.00 280.00,115.00
             273.28,113.37 262.24,113.97 255.00,114.00
             238.45,114.08 221.10,120.53 216.00,138.00 Z" />
  <path id="girl-hair"
        fill="#039be5" stroke="#039be5" stroke-width="1"
        d=" M 116.00,132.00
           C 115.47,127.04 113.98,122.94 108.98,120.85
             100.84,117.46 91.58,124.02 93.41,133.00
             94.68,139.25 99.88,142.38 106.00,141.80
             112.58,141.18 111.28,139.02 123.00,139.00
             127.55,138.99 146.89,139.57 149.78,138.26
             151.63,137.42 151.95,136.54 153.00,135.00
             154.44,135.91 157.27,137.95 158.90,138.10
             162.50,138.45 165.44,130.74 167.00,128.00
             168.05,130.44 170.42,136.56 172.49,137.98
             174.60,139.42 181.03,138.92 184.00,139.29
             191.24,140.18 199.50,144.65 205.72,138.61
             207.58,136.80 208.55,134.56 208.77,132.00
             209.57,122.94 199.98,116.90 192.09,121.31
             187.89,123.66 186.51,127.52 186.00,132.00
             180.85,126.85 176.50,122.07 170.00,118.66
             158.64,112.30 143.29,112.74 132.00,118.66
             122.79,123.73 122.67,126.80 116.00,132.00 Z" />
     <path id="rim"
        fill="black" stroke="black" stroke-width="1"
        d="M 173.00,1.21
           C 150.56,5.10 125.04,12.47 105.00,23.31
             54.44,50.64 17.48,99.02 4.65,155.00
             0.83,171.67 -0.08,188.95 0.00,206.00
             0.00,206.00 0.91,217.00 0.91,217.00
             6.41,295.72 58.79,362.43 133.00,388.69
             147.02,393.65 170.28,399.82 185.00,399.95
             185.00,399.95 199.00,399.95 199.00,399.95
             199.00,399.95 211.00,399.00 211.00,399.00
             220.01,398.99 224.91,399.03 234.00,397.56
             255.73,394.07 276.54,385.78 296.00,375.74
             317.58,364.60 339.82,345.86 355.00,327.00
             373.39,304.14 388.50,274.70 395.11,246.00
             398.60,230.85 400.02,211.56 400.00,196.00
             400.00,196.00 399.09,184.00 399.09,184.00
             395.46,132.13 371.24,83.85 332.00,49.72
             316.94,36.62 303.24,26.98 285.00,18.70
             267.44,10.72 238.21,1.03 219.00,1.21
             219.00,1.21 173.00,1.21 173.00,1.21 Z
           M 187.00,5.28
           C 209.00,3.24 239.04,7.37 260.00,14.33
             282.39,21.77 306.12,33.62 324.00,49.16
             345.77,68.07 364.57,90.62 376.69,117.00
             409.96,189.41 397.51,274.39 342.91,333.00
             326.24,350.89 306.85,364.90 285.00,375.75
             268.67,383.86 239.16,393.78 221.00,394.00
             221.00,394.00 193.00,395.00 193.00,395.00
             193.00,395.00 183.00,393.96 183.00,393.96
             183.00,393.96 174.00,393.96 174.00,393.96
             163.45,392.81 147.14,388.45 137.00,385.00
             118.56,378.72 98.62,368.14 83.00,356.52
             43.18,326.90 15.92,281.89 7.75,233.00
             6.37,224.70 5.01,215.40 5.00,207.00
             5.00,207.00 5.00,194.00 5.00,194.00
             5.01,185.65 6.79,169.26 8.45,161.00
             11.17,147.45 17.53,129.59 23.31,117.00
             44.65,70.52 85.04,34.11 133.00,16.69
             146.68,11.73 161.54,8.02 176.00,6.28
             176.00,6.28 187.00,5.28 187.00,5.28 Z" />
</svg>
