<?xml version="1.0" encoding="UTF-8" standalone="no"?>
<!DOCTYPE svg PUBLIC "-//W3C//DTD SVG 20010904//EN"
              "http://www.w3.org/TR/2001/REC-SVG-20010904/DTD/svg10.dtd">

<svg xmlns="http://www.w3.org/2000/svg"
     width="5.55556in" height="5.55556in"
     viewBox="0 0 400 400">
  <path id="rim"
        fill="none" stroke="black" stroke-width="1"
        d="M 173.00,1.21
           C 150.56,5.10 125.04,12.47 105.00,23.31
             54.44,50.64 17.48,99.02 4.65,155.00
             0.83,171.67 -0.08,188.95 0.00,206.00
             0.00,206.00 0.91,217.00 0.91,217.00
             6.41,295.72 58.79,362.43 133.00,388.69
             147.02,393.65 170.28,399.82 185.00,399.95
             185.00,399.95 199.00,399.95 199.00,399.95
             199.00,399.95 211.00,399.00 211.00,399.00
             220.01,398.99 224.91,399.03 234.00,397.56
             255.73,394.07 276.54,385.78 296.00,375.74
             317.58,364.60 339.82,345.86 355.00,327.00
             373.39,304.14 388.50,274.70 395.11,246.00
             398.60,230.85 400.02,211.56 400.00,196.00
             400.00,196.00 399.09,184.00 399.09,184.00
             395.46,132.13 371.24,83.85 332.00,49.72
             316.94,36.62 303.24,26.98 285.00,18.70
             267.44,10.72 238.21,1.03 219.00,1.21
             219.00,1.21 173.00,1.21 173.00,1.21 Z
           M 187.00,5.28
           C 209.00,3.24 239.04,7.37 260.00,14.33
             282.39,21.77 306.12,33.62 324.00,49.16
             345.77,68.07 364.57,90.62 376.69,117.00
             409.96,189.41 397.51,274.39 342.91,333.00
             326.24,350.89 306.85,364.90 285.00,375.75
             268.67,383.86 239.16,393.78 221.00,394.00
             221.00,394.00 193.00,395.00 193.00,395.00
             193.00,395.00 183.00,393.96 183.00,393.96
             183.00,393.96 174.00,393.96 174.00,393.96
             163.45,392.81 147.14,388.45 137.00,385.00
             118.56,378.72 98.62,368.14 83.00,356.52
             43.18,326.90 15.92,281.89 7.75,233.00
             6.37,224.70 5.01,215.40 5.00,207.00
             5.00,207.00 5.00,194.00 5.00,194.00
             5.01,185.65 6.79,169.26 8.45,161.00
             11.17,147.45 17.53,129.59 23.31,117.00
             44.65,70.52 85.04,34.11 133.00,16.69
             146.68,11.73 161.54,8.02 176.00,6.28
             176.00,6.28 187.00,5.28 187.00,5.28 Z" />
</svg>
