<?xml version="1.0" encoding="UTF-8" standalone="no"?>
<!DOCTYPE svg PUBLIC "-//W3C//DTD SVG 20010904//EN"
              "http://www.w3.org/TR/2001/REC-SVG-20010904/DTD/svg10.dtd">

<svg xmlns="http://www.w3.org/2000/svg"
     width="5.55556in" height="5.55556in"
     viewBox="0 0 400 400">
  <path id="staff"
        fill="none" stroke="black" stroke-width="1"
        d="M 196.00,274.00
           C 198.57,273.97 201.89,274.42 203.26,271.71
             204.30,269.65 203.92,262.04 204.28,259.00
             204.28,259.00 205.00,241.00 205.00,241.00
             205.00,241.00 206.00,221.00 206.00,221.00
             206.01,218.42 205.80,215.52 206.98,213.17
             208.60,209.95 214.38,206.28 213.77,199.00
             213.24,192.54 208.45,187.66 202.00,187.11
             192.62,186.30 185.28,193.56 187.39,203.00
             188.42,207.58 191.33,209.69 193.03,213.00
             194.71,216.26 194.95,220.40 195.00,224.00
             195.00,224.00 195.00,244.00 195.00,244.00
             195.00,244.00 196.00,260.00 196.00,260.00
             196.00,260.00 196.00,274.00 196.00,274.00 Z
           M 202.00,303.00
           C 202.00,303.00 204.00,289.00 204.00,289.00
             202.31,289.06 200.00,288.91 198.39,290.02
             196.35,291.80 196.67,298.35 198.39,300.52
             199.20,301.99 200.48,302.32 202.00,303.00 Z
           M 198.07,322.00
           C 199.29,321.50 200.21,321.40 201.26,320.28
             204.98,316.30 199.24,311.56 198.07,318.06
             198.07,318.06 198.07,322.00 198.07,322.00 Z
           M 202.00,338.00
           C 202.00,338.00 202.00,332.00 202.00,332.00
             198.14,334.25 198.14,335.75 202.00,338.00 Z
           M 200.00,348.00
           C 198.72,352.52 198.72,354.48 200.00,359.00
             202.70,355.33 202.70,351.67 200.00,348.00 Z" />
</svg>
