<?xml version="1.0" encoding="UTF-8" standalone="no"?>
<!DOCTYPE svg PUBLIC "-//W3C//DTD SVG 20010904//EN"
              "http://www.w3.org/TR/2001/REC-SVG-20010904/DTD/svg10.dtd">

<svg xmlns="http://www.w3.org/2000/svg"
     width="5.55556in" height="5.55556in"
     viewBox="0 0 400 400">
  <path id="wings"
        fill="none" stroke="black" stroke-width="1"
        d="M 102.00,215.00
           C 107.61,222.11 113.49,222.90 122.00,222.30
             124.97,222.09 138.13,225.61 141.00,226.99
             144.40,228.64 145.96,230.18 150.00,231.61
             156.16,233.80 157.75,232.05 161.00,232.67
             163.70,233.19 167.30,235.87 170.00,237.34
             174.83,239.52 186.23,242.12 190.40,237.34
             192.36,235.32 192.10,230.77 191.91,228.00
             191.77,225.86 190.98,217.97 189.98,216.49
             189.98,216.49 175.00,204.99 175.00,204.99
             170.40,200.52 165.15,194.14 158.00,195.54
             154.10,196.30 146.05,200.30 142.00,201.99
             131.38,206.40 113.08,213.44 102.00,215.00 Z
           M 298.00,216.00
           C 298.00,216.00 266.00,204.80 266.00,204.80
             260.94,202.79 246.12,195.89 242.00,195.35
             234.80,194.39 228.20,203.13 223.00,207.38
             215.00,213.94 209.14,213.37 209.00,225.00
             208.98,227.28 208.73,234.87 209.57,236.57
             210.76,238.98 214.59,239.59 217.00,239.82
             226.66,240.77 234.01,234.60 238.00,233.09
             242.47,231.39 243.91,233.44 250.00,231.53
             254.76,230.04 257.60,227.47 261.00,226.07
             263.81,224.92 265.36,225.14 268.00,224.45
             268.00,224.45 273.00,222.67 273.00,222.67
             279.39,220.63 289.36,225.62 298.00,216.00 Z" />
</svg>
