<?xml version="1.0" encoding="UTF-8"?>
<svg xmlns="http://www.w3.org/2000/svg" xmlns:xlink="http://www.w3.org/1999/xlink" width="64pt" height="64pt" viewBox="0 0 64 64" version="1.1">
<g id="surface3374643">
<path style=" stroke:none;fill-rule:nonzero;fill:rgb(92.54902%,94.117647%,94.509804%);fill-opacity:1;" d="M 0.988281 31.085938 C 0.988281 13.960938 14.875 0.0742188 32 0.0742188 C 49.125 0.0742188 63.011719 13.960938 63.011719 31.085938 C 63.011719 48.210938 49.125 62.101562 32 62.101562 C 14.875 62.101562 0.988281 48.210938 0.988281 31.085938 Z M 0.988281 31.085938 "/>
<path style=" stroke:none;fill-rule:nonzero;fill:rgb(100%,100%,100%);fill-opacity:1;" d="M 19.886719 12.351562 C 18.738281 12.351562 17.800781 13.289062 17.800781 14.4375 L 17.800781 47.898438 C 17.800781 49.050781 18.738281 49.988281 19.886719 49.988281 L 43.9375 49.988281 C 45.085938 49.988281 46.023438 49.050781 46.023438 47.898438 L 46.023438 22.023438 L 35.9375 12.335938 L 19.886719 12.335938 Z M 19.886719 12.351562 "/>
<path style=" stroke:none;fill-rule:nonzero;fill:rgb(80%,80%,80%);fill-opacity:1;" d="M 46.039062 22.039062 L 38.050781 22.039062 C 36.898438 22.039062 35.960938 21.101562 35.960938 19.949219 L 35.960938 12.351562 Z M 46.039062 22.039062 "/>
<path style=" stroke:none;fill-rule:nonzero;fill:rgb(85.882353%,94.117647%,96.078431%);fill-opacity:1;" d="M 19.773438 40.414062 L 22.800781 37.375 C 22.800781 37.375 24.414062 35.488281 25.761719 35.398438 C 27.113281 35.324219 28.574219 37.199219 28.574219 37.199219 L 30.8125 39.425781 L 31.175781 39.0625 C 31.175781 39.0625 32.488281 37.523438 33.585938 37.460938 C 34.6875 37.398438 35.875 38.925781 35.875 38.925781 L 37.0625 40.101562 C 37.25 39.886719 38.238281 38.824219 39.085938 38.773438 C 40.023438 38.726562 41.039062 40.023438 41.039062 40.023438 L 44.074219 43.039062 L 44.074219 24.351562 L 19.789062 24.398438 L 19.789062 40.414062 Z M 19.773438 40.414062 "/>
<path style=" stroke:none;fill-rule:nonzero;fill:rgb(6.27451%,65.490196%,52.941176%);fill-opacity:1;" d="M 41.023438 40.039062 C 41.023438 40.039062 40.011719 38.738281 39.074219 38.789062 C 38.226562 38.835938 37.238281 39.898438 37.050781 40.113281 L 35.863281 38.9375 C 35.863281 38.9375 34.675781 37.414062 33.574219 37.476562 C 32.476562 37.539062 31.164062 39.074219 31.164062 39.074219 L 30.800781 39.4375 L 28.5625 37.210938 C 28.5625 37.210938 27.101562 35.335938 25.75 35.414062 C 24.398438 35.488281 22.789062 37.386719 22.789062 37.386719 L 19.761719 40.425781 L 19.761719 46.25 C 19.761719 46.363281 19.773438 46.488281 19.800781 46.585938 C 19.8125 46.6875 19.851562 46.773438 19.875 46.863281 C 20.011719 47.25 20.289062 47.574219 20.636719 47.789062 C 20.914062 47.949219 21.226562 48.050781 21.550781 48.050781 L 42.238281 48.050781 C 42.523438 48.050781 42.800781 47.976562 43.039062 47.851562 C 43.460938 47.636719 43.789062 47.261719 43.9375 46.8125 C 43.960938 46.726562 43.988281 46.636719 44.011719 46.539062 C 44.023438 46.4375 44.039062 46.351562 44.039062 46.25 L 44.039062 43.0625 Z M 41.023438 40.039062 "/>
<path style=" stroke:none;fill-rule:nonzero;fill:rgb(100%,100%,100%);fill-opacity:1;" d="M 33.398438 33.273438 C 33.398438 33.25 33.425781 33.226562 33.425781 33.1875 C 33.425781 32.726562 32.925781 32.351562 32.300781 32.351562 C 32.210938 32.351562 32.148438 32.375 32.074219 32.386719 C 31.886719 32.136719 31.550781 31.960938 31.148438 31.976562 C 30.625 31.976562 30.210938 32.261719 30.113281 32.636719 C 29.601562 32.738281 29.226562 33.074219 29.226562 33.488281 C 29.226562 33.875 29.5625 34.199219 30.039062 34.3125 C 30.199219 34.675781 30.636719 34.925781 31.164062 34.925781 C 31.636719 34.925781 32.050781 34.710938 32.238281 34.398438 C 32.363281 34.4375 32.5 34.460938 32.636719 34.460938 C 33.1875 34.460938 33.636719 34.125 33.625 33.710938 C 33.613281 33.550781 33.523438 33.398438 33.398438 33.273438 Z M 38.636719 34.324219 C 38.636719 34.300781 38.625 34.289062 38.625 34.261719 C 38.625 33.9375 38.988281 33.664062 39.425781 33.664062 C 39.488281 33.664062 39.539062 33.675781 39.585938 33.6875 C 39.726562 33.511719 39.960938 33.386719 40.25 33.386719 C 40.625 33.386719 40.925781 33.585938 40.988281 33.851562 C 41.351562 33.925781 41.625 34.164062 41.625 34.449219 C 41.625 34.726562 41.386719 34.960938 41.050781 35.050781 C 40.9375 35.300781 40.625 35.488281 40.25 35.488281 C 39.914062 35.488281 39.625 35.335938 39.488281 35.125 C 39.398438 35.148438 39.300781 35.175781 39.199219 35.175781 C 38.8125 35.175781 38.488281 34.9375 38.488281 34.648438 C 38.488281 34.523438 38.550781 34.414062 38.636719 34.324219 Z M 38.636719 34.324219 "/>
</g>
</svg>
